<svg height="800" width="800" version="1.1" id="Layer_1" xmlns="http://www.w3.org/2000/svg" viewBox="0 0 50 50" xml:space="preserve"><path fill="#231F20" d="M15.868 28.234l-2.33 9.757a1 1 0 001.484 1.092l8.762-5.203 8.758 5.203a1 1 0 001.484-1.091l-2.33-9.757 7.734-6.554a.998.998 0 00-.564-1.759l-10.201-.842-3.963-9.25a.999.999 0 00-1.838 0l-3.966 9.25-10.198.841a1 1 0 00-.564 1.759l7.732 6.554zm3.794-7.211a.999.999 0 00.837-.603l3.284-7.659 3.28 7.658a.999.999 0 00.837.603l8.394.692-6.361 5.391a.997.997 0 00-.326.995l1.924 8.055-7.236-4.299a.995.995 0 00-1.021 0l-7.24 4.3 1.924-8.056a.997.997 0 00-.326-.995l-6.359-5.391 8.389-.691z"/></svg>